<?xml version="1.0" encoding="UTF-8" standalone="no"?>
<!DOCTYPE svg PUBLIC "-//W3C//DTD SVG 1.1//EN"
 "http://www.w3.org/Graphics/SVG/1.1/DTD/svg11.dtd">
<!-- Generated by graphviz version 2.40.1 (20161225.0304)
 -->
<!-- Title: netgraph Pages: 1 -->
<svg width="182pt" height="131pt"
 viewBox="0.00 0.00 181.50 131.00" xmlns="http://www.w3.org/2000/svg" xmlns:xlink="http://www.w3.org/1999/xlink">
<g id="graph0" class="graph" transform="scale(1 1) rotate(0) translate(4 127)">
<title>netgraph</title>
<polygon fill="#ffffff" stroke="transparent" points="-4,4 -4,-127 177.5,-127 177.5,4 -4,4"/>
<!-- 1.1.1.1 -->
<g id="node1" class="node">
<title>1.1.1.1</title>
<polygon fill="#edad56" stroke="#edad56" stroke-width="3" points="61,-123 0,-123 0,-87 61,-87 61,-123"/>
<text text-anchor="middle" x="30.5" y="-101.3" font-family="Arial" font-size="14.00" fill="#000000">1.1.1.1</text>
</g>
<!-- 8.8.8.8 -->
<g id="node2" class="node">
<title>8.8.8.8</title>
<polygon fill="#edad56" stroke="#edad56" stroke-width="3" points="61,-36 0,-36 0,0 61,0 61,-36"/>
<text text-anchor="middle" x="30.5" y="-14.3" font-family="Arial" font-size="14.00" fill="#000000">8.8.8.8</text>
</g>
<!-- 1.1.1.1&#45;&gt;8.8.8.8 -->
<g id="edge1" class="edge">
<title>1.1.1.1&#45;&gt;8.8.8.8</title>
<path fill="none" stroke="#c0c0c0" stroke-width="2" d="M30.5,-86.9735C30.5,-77.9914 30.5,-66.772 30.5,-56.0083"/>
<polygon fill="#c0c0c0" stroke="#c0c0c0" stroke-width="2" points="30.5,-36.0034 39.5001,-56.0033 31,-46.0034 31.0001,-56.0034 30.5001,-56.0034 30.0001,-56.0034 30,-46.0034 21.5001,-56.0034 30.5,-36.0034 30.5,-36.0034"/>
<text text-anchor="middle" x="39" y="-57.8" font-family="Arial" font-size="14.00" fill="#000000">22</text>
</g>
<!-- 2.2.2.2 -->
<g id="node3" class="node">
<title>2.2.2.2</title>
<polygon fill="#edad56" stroke="#edad56" stroke-width="3" points="157,-123 96,-123 96,-87 157,-87 157,-123"/>
<text text-anchor="middle" x="126.5" y="-101.3" font-family="Arial" font-size="14.00" fill="#000000">2.2.2.2</text>
</g>
<!-- 10.10.10.10 -->
<g id="node4" class="node">
<title>10.10.10.10</title>
<polygon fill="#edad56" stroke="#edad56" stroke-width="3" points="173.5,-36 79.5,-36 79.5,0 173.5,0 173.5,-36"/>
<text text-anchor="middle" x="126.5" y="-14.3" font-family="Arial" font-size="14.00" fill="#000000">10.10.10.10</text>
</g>
<!-- 2.2.2.2&#45;&gt;10.10.10.10 -->
<g id="edge2" class="edge">
<title>2.2.2.2&#45;&gt;10.10.10.10</title>
<path fill="none" stroke="#c0c0c0" stroke-width="2" d="M126.5,-86.9735C126.5,-77.9914 126.5,-66.772 126.5,-56.0083"/>
<polygon fill="#c0c0c0" stroke="#c0c0c0" stroke-width="2" points="126.5,-36.0034 135.5001,-56.0033 127,-46.0034 127.0001,-56.0034 126.5001,-56.0034 126.0001,-56.0034 126,-46.0034 117.5001,-56.0034 126.5,-36.0034 126.5,-36.0034"/>
<text text-anchor="middle" x="135" y="-57.8" font-family="Arial" font-size="14.00" fill="#000000">22</text>
</g>
</g>
</svg>
